<?xml version="1.0" standalone="no"?>
<!DOCTYPE svg PUBLIC "-//W3C//DTD SVG 1.1//EN" "http://www.w3.org/Graphics/SVG/1.1/DTD/svg11.dtd" >
<svg xmlns="http://www.w3.org/2000/svg">
<metadata>
Created by FontForge 20120731 at Thu Dec  8 09:30:12 2016
 By admin
</metadata>
<defs>
<font id="iconfont" horiz-adv-x="1024" >
  <font-face 
    font-family="iconfont"
    font-weight="500"
    font-stretch="normal"
    units-per-em="1024"
    panose-1="2 0 6 3 0 0 0 0 0 0"
    ascent="896"
    descent="-128"
    x-height="792"
    bbox="0 -128 1301 864"
    underline-thickness="0"
    underline-position="0"
    unicode-range="U+0078-E763"
  />
<missing-glyph 
 />
    <glyph glyph-name=".notdef" 
 />
    <glyph glyph-name=".notdef" 
 />
    <glyph glyph-name=".null" horiz-adv-x="0" 
 />
    <glyph glyph-name="nonmarkingreturn" horiz-adv-x="341" 
 />
    <glyph glyph-name="x" unicode="x" horiz-adv-x="1001" 
d="M281 543q-27 -1 -53 -1h-83q-18 0 -36.5 -6t-32.5 -18.5t-23 -32t-9 -45.5v-76h912v41q0 16 -0.5 30t-0.5 18q0 13 -5 29t-17 29.5t-31.5 22.5t-49.5 9h-133v-97h-438v97zM955 310v-52q0 -23 0.5 -52t0.5 -58t-10.5 -47.5t-26 -30t-33 -16t-31.5 -4.5q-14 -1 -29.5 -0.5
t-29.5 0.5h-32l-45 128h-439l-44 -128h-29h-34q-20 0 -45 1q-25 0 -41 9.5t-25.5 23t-13.5 29.5t-4 30v167h911zM163 247q-12 0 -21 -8.5t-9 -21.5t9 -21.5t21 -8.5q13 0 22 8.5t9 21.5t-9 21.5t-22 8.5zM316 123q-8 -26 -14 -48q-5 -19 -10.5 -37t-7.5 -25t-3 -15t1 -14.5
t9.5 -10.5t21.5 -4h37h67h81h80h64h36q23 0 34 12t2 38q-5 13 -9.5 30.5t-9.5 34.5q-5 19 -11 39h-368zM336 498v228q0 11 2.5 23t10 21.5t20.5 15.5t34 6h188q31 0 51.5 -14.5t20.5 -52.5v-227h-327z" />
    <glyph glyph-name="xiaojiantou" unicode="&#xe600;" 
d="M724 374l-263 282h-121l262 -282l-262 -263h121z" />
    <glyph glyph-name="lajitong" unicode="&#xe616;" 
d="M210 549h608v-27v-512q0 -40 -17 -57t-56 -17h-467q-36 0 -53 16t-17 51v525q0 1 2 21zM371 48v394h-53v-394h53zM482 48v394h-53v-394h53zM594 48v394h-53v-394h53zM705 48v394h-53v-394h53zM151 613q2 57 3 61q8 41 49 44q10 1 94 2h30v46q0 29 16 47t44 18
q134 2 266 0q28 0 43 -16.5t16 -45.5v-49q66 0 69 1q58 3 78 -24.5t12 -83.5h-720zM382 718q230 0 262 1q12 0 15.5 5t2 15.5t-1.5 13.5q2 12 -2.5 18.5t-18.5 6.5h-190h-67v-60z" />
    <glyph glyph-name="sousuo" unicode="&#xe60b;" 
d="M595.5 747.5q-83.5 83.5 -202 83.5t-202 -83.5t-83.5 -201.5t83.5 -202t202 -84t202 84t83.5 202t-83.5 201.5zM232 384.5q-67 66.5 -67 161t67 161.5t161.5 67t161.5 -67t67 -161.5t-67 -161t-161.5 -66.5t-161.5 66.5zM677 327l-41 41q-14 -18 -30 -34.5t-35 -29.5
l41 -41q18 14 34 30t31 34zM998 6l-308 308q-14 -18 -30 -34.5t-35 -29.5l309 -309q11 -10 21 0l43 43q11 11 0 22v0z" />
    <glyph glyph-name="fenxiang1" unicode="&#xe606;" 
d="M754 311q-74 0 -119 -59l-233 117q5 20 5 41q0 22 -6 44l232 117q21 -29 52.5 -45.5t68.5 -16.5q61 0 104.5 43t43.5 104.5t-43.5 105t-105 43.5t-105 -43.5t-43.5 -104.5q0 -8 1 -17l-245 -123q-43 41 -102 41q-61 0 -104.5 -43.5t-43.5 -105t43.5 -105t105 -43.5
t104.5 44l243 -122q-2 -10 -2 -20q0 -61 43.5 -104.5t105 -43.5t105 43.5t43.5 104.5t-43.5 104.5t-104.5 43.5v0z" />
    <glyph glyph-name="jinrongzhishi" unicode="&#xe607;" 
d="M807 680q-60 61 -138 92t-157.5 31t-157.5 -31t-138 -92q-81 -80 -109.5 -188t-0.5 -216t109 -188q60 -60 138.5 -91.5t158 -31.5t158 31.5t138.5 91.5q81 80 109 188t-0.5 216t-109.5 188zM667 407v-82h-114v-34h114v-81h-114v-88h-91v88h-113v81h113v34h-113v82h69
l-105 204h104l67 -140q16 -32 18 -42q3 10 19 42l68 140h104l-106 -204h80z" />
    <glyph glyph-name="youjian" unicode="&#xe617;" 
d="M955 105q3 9 3 17v496q0 7 -3 16l-291 -249zM512 324l77 63l38 31l293 251q-9 2 -15 2h-786q-7 0 -15 -2l293 -251l38 -31zM905 69q6 0 14 2l-294 282l-113 -92l-114 92l-293 -282q8 -2 14 -2h786zM68 634q-2 -9 -2 -16v-496q0 -8 3 -17l291 279z" />
    <glyph glyph-name="kefu" unicode="&#xe608;" 
d="M510 677q-92 0 -157 -63.5t-65 -153.5t65 -153.5t157 -63.5t156.5 63.5t64.5 153.5t-64.5 153.5t-156.5 63.5v0zM254 377v200h-9q35 75 106.5 121t158.5 46t158.5 -46t105.5 -121h-8v-200q42 0 72 29t30 71q0 28 -14 51t-38 36q-34 95 -117.5 154t-188.5 59t-189 -59
t-117 -154q-24 -13 -38.5 -36t-14.5 -51q0 -42 30 -71t73 -29v0zM731 262q-93 -86 -221 -86t-221 85q-81 -40 -126.5 -109.5t-45.5 -161.5h788q0 92 -46.5 161.5t-127.5 110.5v0zM731 262z" />
    <glyph glyph-name="wifidayuanicon" unicode="&#xe61d;" 
d="M706 236v0v0zM832.5 700.5q-64.5 64.5 -148.5 98t-168.5 33.5t-168.5 -33.5t-148 -97.5q-86 -86 -116.5 -201.5t0 -231t116.5 -201.5t201 -116.5t230.5 0t201.5 116.5q65 65 98.5 148.5t33.5 168.5t-33.5 168.5t-98 148zM360 233q-13 13 -13 31t13 31t31.5 13t31 -13
t12.5 -31t-12.5 -31t-31 -13t-31.5 13zM553 211q-13 13 -10 31v0v0q2 17 -3 42q-10 48 -45.5 83.5t-82.5 45.5q-22 4 -40 3q-19 -4 -33 9q-11 11 -11 26t11 25q8 9 20 11v0q5 1 13 1.5t30 -1.5t43.5 -8t49 -21.5t51 -38.5t39 -51t21.5 -49.5t8 -43.5t1.5 -30t-1.5 -13v0
q-2 -12 -10 -21q-11 -10 -26 -10t-25 10zM736 195q-11 1 -20 10q-13 13 -10 31q4 34 -5 83q-19 95 -89 165t-165 89q-49 9 -83 5v0v0q-18 -3 -31 10q-9 9 -10 20q-3 15 6 27t24 15q43 7 103 -4q52 -10 100 -33q58 -29 107 -77v-0.5v-0.5h0.5h0.5q48 -49 77 -107
q23 -48 33 -100q11 -60 4 -103q-3 -15 -15 -24t-27 -6z" />
    <glyph glyph-name="chenggong" unicode="&#xe640;" 
d="M512 728q-107 0 -197 -52.5t-142 -142.5t-52 -196t52 -196t142 -142.5t196.5 -52.5t196.5 52.5t142.5 142.5t52.5 196t-52.5 196t-142.5 142.5t-196 52.5v0zM512 1q-91 0 -168.5 45t-122.5 122.5t-45 168.5t45 168.5t122.5 122t168.5 44.5t168 -44.5t122 -122t45 -168.5
t-45 -168.5t-122 -122.5t-168 -45v0zM448 251l-111 89l-50 -34l189 -194q4 10 12.5 27.5t35.5 65.5t56 91t71.5 93.5t84.5 83.5l-16 22q-2 0 -60 -43.5t-126.5 -104.5t-85.5 -96v0zM448 251z" />
    <glyph glyph-name="arrow" unicode="&#xe62d;" 
d="M398 468l180 -180l-182 -182q-10 -10 -10 -24t10 -24t24 -10t24 9v0l206 206q11 10 11 25v0v0q0 15 -11 25v0l-206 206q-10 9 -24 9t-24 -10t-10 -24q0 -16 12 -26z" />
    <glyph glyph-name="sousuo1" unicode="&#xe604;" 
d="M704 246q45 54 65 118q16 51 16 108q0 98 -48.5 181t-131.5 131t-180.5 48t-180.5 -48t-131.5 -131t-48.5 -181t48.5 -181t131.5 -131.5t181 -48.5q128 0 225 81l228 -228q12 -12 28 -12t27 11v0q11 12 11 27.5t-12 27.5zM115 474q0 127 90 217t217 90t217.5 -90
t90.5 -217t-90.5 -217.5t-217.5 -90.5t-217 90.5t-90 217.5v0z" />
    <glyph glyph-name="check" unicode="&#xe612;" 
d="M926 770q-19 -12 -51 -33t-113.5 -83t-143.5 -120t-123.5 -130.5t-92 -114t-30.5 -43.5l-211 178l-86 -83l345 -343q14 25 39.5 67.5t99 153t139.5 196.5q51 67 115.5 137t103.5 107l39 37z" />
    <glyph glyph-name="hotline" unicode="&#xe626;" 
d="M764 145l-89 141q-5 8 -14.5 10t-17.5 -3l-45 -39q-16 -7 -32.5 6.5t-46.5 52.5l-76 120q-30 60 -6 78l52 27v0q8 6 10 15.5t-3 16.5v0l-89 141q-5 9 -14.5 11t-17.5 -3l-46 -37q-10 -9 -19.5 -24.5t-16 -48t-2.5 -72t26 -99.5t64 -127q42 -70 87.5 -119t81 -71.5
t68.5 -32.5t53 -8.5t32 7.5l54 25v1q8 5 10 14.5t-3 16.5v1zM510 863q-97 0 -185 -38t-152 -102t-102 -152t-38 -185t38 -185.5t102 -152.5t152 -101.5t185 -37.5t185.5 37.5t152.5 101.5t101.5 152.5t37.5 185.5t-37.5 185t-101.5 152t-152.5 102t-185.5 38zM510.5 -40
q-115.5 0 -213.5 57t-155 155t-57 213.5t57 213.5t155 155t213.5 57t213.5 -57t155 -155t57 -213.5t-57 -213.5t-155 -155t-213.5 -57z" />
    <glyph glyph-name="pipiguanyu01" unicode="&#xe627;" 
d="M512 -80q-94 0 -180 36q-83 35 -147.5 99t-99.5 147q-37 86 -37 180q0 95 36 181q35 83 98.5 147.5t147.5 100.5q86 37 180 37h2q94 0 180 -36q83 -35 147.5 -99t99.5 -147q37 -86 37 -180q0 -95 -36 -181q-35 -83 -98.5 -147.5t-147.5 -100.5q-86 -37 -180 -37h-2z
M512 795h-2q-82 -1 -157 -32t-132.5 -89.5t-88.5 -133.5t-31 -158q1 -111 56 -205t149.5 -149t205.5 -55h2q111 1 205.5 56.5t149 150t54.5 206.5q-1 111 -56 205t-149.5 149t-205.5 55zM475 432q4 12 0.5 18.5t-10.5 6.5q-15 0 -35.5 -20.5t-37.5 -41t-24 -20.5
q-5 0 -8.5 4t-3.5 8q0 15 54 69q66 63 141 63q17 0 30 -5.5t23 -17.5t9.5 -36t-12.5 -57l-68 -184q-16 -40 -16 -52q0 -14 12 -14t32.5 20t38 40.5t22.5 20.5q4 0 7.5 -4.5t3.5 -10.5q0 -10 -19 -33.5t-47.5 -48.5t-67 -43.5t-71.5 -18.5q-27 0 -42.5 13t-15.5 39
q0 45 39 139zM526 617q0 31 23 53.5t54 22.5q29 0 47 -18t18 -46q0 -32 -23 -54t-55 -22q-29 0 -46.5 17.5t-17.5 46.5z" />
    <glyph glyph-name="dianhua" unicode="&#xe605;" 
d="M599 537q25 31 38 73q14 43 14 90q37 -14 49 -26.5t12 -35.5q0 -39 -19 -77t-39 -38q-8 0 -21 3q-12 3 -34 11zM215 110q-59 75 -84 139q-26 65 -26 139q0 80 31 155q31 74 88 132q58 57 132 88q75 31 155 31q82 0 155 -31q74 -30 132 -88q57 -57 88 -131.5t31 -155.5
q0 -80 -31 -155t-88 -132q-58 -57 -132.5 -88t-154.5 -31q-98 0 -156 31q-59 31 -59 82q0 11 4 22q4 10 13 22q9 -8 16 -12t13 -4q9 0 27 15q19 16 37 40q15 20 26 46q10 25 10 32q0 5 -12.5 20t-12.5 30q0 21 12 54q12 35 34 80q26 53 42 74t33 27q4 1 13 2q29 3 44 26
q13 22 23 57q10 36 10 60q0 20 -6 27t-26 7q-31 0 -53 -5q-23 -4 -34 -13q-14 -10 -44 -49q-31 -38 -63 -88q-58 -92 -96 -195q-37 -103 -37 -154q0 -10 4 -22q5 -12 16 -29q-15 -20 -22.5 -39t-7.5 -38q0 -64 69 -105q70 -41 183 -41q87 0 170 34q82 34 145 97
q63 62 97 145q34 82 34 170t-34 169q-34 82 -97 145q-63 64 -144 97q-82 34 -171 34t-170 -34t-144 -97q-63 -62 -97 -144t-34 -170q0 -77 24 -143q23 -66 69 -117q9 -11 18.5 -17t17.5 -6q1 0 7 1q3 1 13 4zM364 108q38 27 63 63q24 35 35 77q27 -17 36 -28t9 -22
q0 -31 -31 -72t-59 -41q-8 0 -22 6q-13 6 -31 17v0z" />
    <glyph glyph-name="dianhua1" unicode="&#xe624;" 
d="M593 506q24 29 37 68q12 40 12 85q35 -13 46.5 -25t11.5 -33q0 -37 -18 -72.5t-37 -35.5q-7 0 -20 3q-11 3 -32 10zM233 106q-55 70 -78 130q-24 61 -24 130q0 75 29 146q28 70 82 123q54 54 124 83t145 29q77 0 146 -29q68 -28 123 -83q54 -53 83 -123t29 -146
q0 -74 -29 -144.5t-83 -123.5q-54 -54 -124 -83t-145 -29q-92 0 -146 29q-56 29 -56 77q0 10 4 20t12 21q9 -8 16 -12q6 -3 12 -3q8 0 25 14q18 15 35 37q14 19 24 43t10 31q0 4 -12 18t-12 29q0 19 11 50q11 33 32 75q25 50 39 69q15 20 32 26q3 1 12 2q27 3 41 24
q12 21 22 54q9 33 9 56q0 18 -6 24.5t-24 6.5q-29 0 -50 -4t-32 -12q-13 -9 -41 -46q-29 -36 -59 -83q-55 -86 -90 -182q-35 -97 -35 -145q0 -9 4 -20q5 -11 15 -28q-14 -18 -21 -36t-7 -36q0 -60 65 -98.5t171 -38.5q82 0 159.5 32t136.5 91t90 136q32 77 32 159.5
t-31 158.5q-32 76 -91 136t-135.5 91.5t-160.5 31.5q-83 0 -159 -32t-136 -91q-58 -58 -90 -135q-32 -78 -32 -160q0 -72 22 -134t65 -110q9 -10 17.5 -15.5t16.5 -5.5q1 0 7 1q2 1 11 4v0zM373 104q35 25 59 59q23 32 33 72q25 -16 33.5 -26t8.5 -21q0 -29 -29 -67
q-29 -39 -55 -39q-8 0 -21 6q-12 5 -29 16z" />
    <glyph glyph-name="shibai" unicode="&#xe682;" 
d="M512 804q-114 0 -211 -56t-153 -153t-56 -211t56 -211t153 -153t211 -56t211 56t153 153t56 211t-56 211t-153 153t-211 56v0zM512 20q-99 0 -183 48.5t-132.5 132.5t-48.5 183t48.5 183t132.5 132.5t183 48.5t183 -48.5t132.5 -132.5t48.5 -183t-48.5 -183
t-132.5 -132.5t-183 -48.5v0zM554 385l130 128q9 9 9 21.5t-9 21.5t-21.5 9t-20.5 -9l-130 -129l-128 129q-9 9 -21.5 9t-21 -9t-9 -21.5t8.5 -21.5l128 -128l-129 -127q-9 -9 -9 -21.5t9 -21.5t21 -9q13 0 21 9l129 128l130 -131q9 -9 21.5 -9t21.5 9t9 21.5t-9 21.5z" />
    <glyph glyph-name="time" unicode="&#xe613;" 
d="M514 829q-89 0 -171.5 -35.5t-142.5 -95t-95.5 -142t-35.5 -172.5q0 -91 35.5 -173.5t95.5 -142.5t143 -96t174 -36q90 0 172 36t142 96t95.5 142.5t35.5 173.5q0 90 -35.5 172.5t-95.5 142t-143 95t-174 35.5zM704 195l-232 142v270h66v-232l201 -121z" />
    <glyph glyph-name="dianzan" unicode="&#xe62e;" 
d="M118 581h159v-569h-159v569zM340 576l163 194q15 19 42 26.5t42 0.5v0v0q19 -9 30.5 -33.5t8.5 -50.5l-15 -151h225q31 0 52.5 -21.5t13.5 -45.5q-2 -8 -31.5 -121.5t-59 -220t-37.5 -117.5q-8 -12 -23.5 -17.5t-24 -6t-24.5 -0.5h-362v564z" />
    <glyph glyph-name="diqiu" unicode="&#xe61e;" 
d="M946 488q-10 46 -24 75q-52 122 -163 197t-247 75q-90 0 -172.5 -35t-142 -94.5t-95 -142t-35.5 -173t35.5 -173t95 -142t142 -94.5t172.5 -35t172.5 35t142 94.5t95 142t35.5 173.5q0 49 -11 97v0zM150 391q0 66 23 128q5 -3 19 -8.5t20 -11t6 -14.5q0 -23 0.5 -37
t3 -33.5t7 -31.5t12 -24t20 -18t29.5 -6q2 0 11 -4.5t23 -18.5t21 -33q3 -6 10.5 -6t21.5 3t24 3q6 0 6 -5.5t-3 -24t-3 -35.5q0 -20 25 -48t51 -47l25 -18q-1 -43 4 -73q-97 2 -179 51t-129.5 131.5t-47.5 180.5v0zM600 39q9 38 13 52t14 32.5t24 30.5q20 18 19 34.5
t-15.5 27t-31.5 8.5q-9 -1 -13 3.5t-4.5 10.5t-4 11.5t-10.5 6.5q-13 1 -42.5 27t-44.5 33q0 1 -23 15.5t-39 15.5q-6 0 -15 -2t-16.5 -4t-14 -3.5t-10 -0.5t-3.5 6q0 16 -7 100q0 3 -1 5q0 1 2 1q9 -3 24 -3q9 0 13.5 17.5t12.5 17.5q8 1 35.5 -5.5t33.5 -2.5q2 1 9 -9
q3 -5 11 -18q28 -49 39 -49q13 0 13 49q0 5 -2 17t-2 22t4 17q8 14 18.5 32t17.5 29t13 22.5t9 17.5t2 8t-10 3t-23 0t-26 -4q-4 -1 -3.5 -9t-5.5 -9q-44 -10 -68 9q-13 11 -5 23q5 8 23 12.5t32.5 12.5t16.5 27q3 30 7 73q96 -15 172 -75.5t111 -150.5q-145 -105 -51 -188
q26 -23 55 -68q-31 -84 -98 -145t-155 -83v0v0z" />
    <glyph glyph-name="40one" unicode="&#xe614;" 
d="M494.5 338q86.5 0 147 60.5t60.5 147t-60.5 147.5t-147.5 61q-85 0 -146.5 -61t-61.5 -147q0 -87 61 -147.5t147.5 -60.5zM496 310q-224 4 -297 -168q-28 -65 -28 -150h645q0 7 -0.5 18t-6.5 43.5t-16.5 62.5t-34.5 66.5t-56.5 63t-86 45t-119.5 19.5z" />
    <glyph glyph-name="liwu" unicode="&#xe628;" 
d="M494 -21h-24h-203h-127v413h-33v199h157q-34 24 -48 58q-20 48 -1 91q14 33 50 44q18 5 37 5q30 0 55 -13q11 -5 30 -21q23 -22 53 -74l7 -12q21 -35 36 -49q12 -12 28 -12h2q17 0 29 13q15 14 36 50q6 11 10 17q36 61 70 83q28 18 64 18q16 0 32 -4q32 -8 48 -33
q23 -32 13 -80q-9 -46 -50 -77q-3 -2 -5 -4h157v-200q-31 1 -33 1v-233v-171v-9h-258h-70h-62v0zM620 264v-234h213v361h-213v-127zM404 30v20v341h-213v-361h213v0zM569 31v509h-114v-509h114zM866 443v97h-246v-97h246zM404 443v97h-246v-97h246zM621 608h29q38 2 69 18
q36 20 45 52q7 28 -4 45q-6 10 -22 13q-8 2 -16 2q-19 0 -33 -8q-22 -13 -43 -45q-7 -11 -20 -33q-17 -30 -28 -44h23zM426 608q-11 14 -28 44l-18 30q-19 29 -36 42q-17 14 -41 14h-5q-22 -1 -32 -12q-13 -15 -7 -44q6 -30 36 -50q37 -24 86 -24h45z" />
    <glyph glyph-name="tishi" unicode="&#xe622;" 
d="M512 834q-92 0 -175 -35.5t-143.5 -96t-96 -143.5t-35.5 -175t35.5 -175t96 -143.5t143.5 -96t175 -35.5t175 35.5t143.5 96t96 143.5t35.5 175t-35.5 175t-96 143.5t-143.5 96t-175 35.5v0zM583 218q-30 -44 -58.5 -67t-68.5 -23q-29 5 -41.5 23.5t-5.5 40.5l74 248
q4 11 -6 14q-9 3 -26 -15l-45 -55v31q25 38 62 64.5t65 26.5q26 -3 39 -21.5t8 -42.5l-75 -249q-2 -10 7 -13t26 15l45 55q1 -6 0.5 -18.5t-0.5 -13.5v0zM573 542q-22 0 -37 14.5t-15 37t15 37t36.5 14.5t36.5 -14.5t15 -37t-15 -37t-36 -14.5v0zM573 542z" />
    <glyph glyph-name="shipin" unicode="&#xe623;" horiz-adv-x="1418" 
d="M1066 747q0 25 -17 42t-41 17h-818q-24 0 -41.5 -17t-17.5 -42v-701q0 -24 17.5 -41t41.5 -17h818q24 0 41 17t17 41v205l234 -234v760l-234 -234v204zM482 193v408l321 -204z" />
    <glyph glyph-name="gegu" unicode="&#xe620;" 
d="M512 834q-186 0 -318 -132t-132 -318t132 -318t318 -132t318 132t132 318t-132 318t-318 132zM815 116v409q0 10 -6.5 16.5t-16 6.5t-16 -6.5t-6.5 -16.5v-453q-43 -36 -95 -59v372q0 9 -6.5 16t-16 7t-16 -7t-6.5 -16v-388q-45 -14 -95 -17v673q0 9 -7 15.5t-16 6.5
t-15.5 -6.5t-6.5 -15.5v-673q-51 3 -95 16v480q0 9 -7 15.5t-16 6.5t-15.5 -6.5t-6.5 -15.5v-463q-53 23 -95 59v0v259q0 9 -7 15.5t-16 6.5t-15.5 -6.5t-6.5 -15.5v-215q-103 115 -103 268q0 110 54.5 203t147.5 147.5t203 54.5t203.5 -54.5t147.5 -147.5t54 -203
q0 -153 -102 -268z" />
    <glyph glyph-name="shoucang" unicode="&#xe609;" 
d="M507 821l-339 -203l341 -204l339 203zM135 153l340 -203v408l-340 204v-409zM538 355v-405l341 203v406z" />
    <glyph glyph-name="liwu1" unicode="&#xe61f;" 
d="M630 571q-2 1 -6 1q-26 0 -52 -68q34 2 53 16t21 29q2 16 -16 22zM512 834q-186 0 -318 -132t-132 -318t132 -318t318 -132t318 132t132 318t-132 318t-318 132zM488 147h-118q-20 0 -33.5 14t-13.5 34v118q0 20 13.5 33.5t33.5 13.5h118v-213zM701 195q0 -20 -13.5 -34
t-33.5 -14h-118v213h118q20 0 33.5 -13.5t13.5 -33.5v-118zM725 420q0 -5 -3.5 -8.5t-8.5 -3.5h-402q-5 0 -8.5 3.5t-3.5 8.5v47q0 5 3.5 8.5t8.5 3.5h71q-36 26 -40 62q-3 26 9.5 46.5t37.5 28.5q9 3 17 3q59 0 101 -118h17q6 18 13 34.5t19.5 37.5t30.5 34t37 13
q10 0 18 -2q24 -9 37 -29.5t10 -45.5q-5 -39 -42 -64h66q5 0 8.5 -3.5t3.5 -8.5v-47zM406 571q-3 0 -5 -1q-18 -5 -16 -22q1 -15 20.5 -29t53.5 -17q-28 69 -53 69z" />
    <glyph glyph-name="icchevronleft24px" unicode="&#xe601;" 
d="M657 580l-60 60l-256 -256l256 -256l60 60l-195 196z" />
    <glyph glyph-name="icchevronright24px" unicode="&#xe602;" 
d="M427 640l-60 -60l195 -196l-195 -196l60 -60l256 256z" />
    <glyph glyph-name="icarrowdropdown24px" unicode="&#xe603;" 
d="M299 469l213 -213l213 213h-426z" />
    <glyph glyph-name="xiazai" unicode="&#xe60a;" 
d="M992 96q-14 0 -23 -9t-9 -23v-64q0 -29 -17.5 -46.5t-46.5 -17.5h-704q-29 0 -46.5 17.5t-17.5 46.5v64q0 14 -9 23t-23 9t-23 -9t-9 -23v-64q0 -53 37.5 -90.5t90.5 -37.5h704q53 0 90.5 37.5t37.5 90.5v64q0 14 -9 23t-23 9zM544 19l186 186q9 9 9 22t-9.5 22.5
t-22.5 9.5t-22 -9l-109 -109v627h-64v-627l-102 102q-10 10 -23 10t-22.5 -9.5t-9.5 -22.5t10 -23z" />
    <glyph glyph-name="iconfontgrid1" unicode="&#xe61c;" 
d="M403 834h-246q-33 0 -57 -24t-24 -58v-245q0 -34 24 -58t57 -24h246q34 0 58 24t24 58v245q0 34 -24 58t-58 24zM430 507q0 -12 -8 -20t-19 -8h-246q-11 0 -19 8t-8 20v245q0 11 8 19t19 8h246q11 0 19 -8t8 -19v-245zM867 834h-246q-34 0 -58 -24t-24 -58v-245
q0 -34 24 -58t58 -24h246q33 0 57 24t24 58v245q0 34 -24 58t-57 24zM894 507q0 -12 -8 -20t-19 -8h-246q-11 0 -19 8t-8 20v245q0 11 8 19t19 8h246q11 0 19 -8t8 -19v-245zM403 370h-246q-33 0 -57 -24t-24 -57v-246q0 -34 24 -58t57 -24h246q34 0 58 24t24 58v246
q0 33 -24 57t-58 24zM430 43q0 -11 -8 -19t-19 -8h-246q-11 0 -19 8t-8 19v246q0 11 8 19t19 8h246q11 0 19 -8t8 -19v-246zM867 370h-246q-34 0 -58 -24t-24 -57v-246q0 -34 24 -58t58 -24h246q33 0 57 24t24 58v246q0 33 -24 57t-57 24zM894 43q0 -11 -8 -19t-19 -8h-246
q-11 0 -19 8t-8 19v246q0 11 8 19t19 8h246q11 0 19 -8t8 -19v-246z" />
    <glyph glyph-name="user" unicode="&#xe621;" 
d="M513 -61q-91 0 -173.5 35.5t-142 95t-95 142t-35.5 173.5t35.5 173.5t95 142.5t142 95t173.5 35t173.5 -35t142.5 -95t95 -142.5t35 -173.5t-35 -173.5t-95 -142t-142.5 -95t-173.5 -35.5zM513.5 748q-98.5 0 -182 -48.5t-132 -132t-48.5 -182.5q0 -139 94 -243
q26 13 46.5 15.5t55.5 17.5q31 13 52.5 22.5t27.5 12.5l6 4l1 66q-3 3 -7.5 8t-14 26t-12.5 49q-11 -3 -16.5 8t-6.5 26q0 2 -1 12t-1.5 16.5t0 14.5t4 11.5t8.5 2.5q-7 55 -5 73q4 41 40.5 73.5t91.5 35.5q62 -3 94.5 -34t36.5 -75q2 -17 -6 -73q6 1 9 -2.5t3.5 -11.5
t0.5 -14.5t-1 -16.5t-2 -12q0 -15 -5.5 -26t-16.5 -8q-4 -28 -12.5 -48.5t-15.5 -27.5l-7 -6l1 -67q16 -9 87 -38q34 -14 54.5 -17.5t46.5 -16.5q95 104 95 243q0 99 -48.5 182.5t-132 132t-182 48.5z" />
    <glyph glyph-name="shequ" unicode="&#xe619;" horiz-adv-x="1411" 
d="M717 153l-15 -16q-13 -13 -31 -13t-31 13l-46 46v-249h-132l-1 160h-133l2 -160h-132v249l-45 -46q-13 -13 -31.5 -13t-31.5 13l-15 16q-13 13 -13 31t13 31l280 280q17 17 41 11q24 6 42 -11l279 -280q13 -13 13 -31t-13 -31v0zM717 153zM1288 153l-15 -16
q-13 -13 -31 -13t-31 13l-46 46v-249h-132l-1 159h-133l2 -159h-132v162l3 3t8.5 8t11 13t11 17.5t9.5 21t5 25t-2 28.5q-7 31 -23.5 57.5t-29.5 37.5l-13 11l177 177q17 17 41 11q24 6 42 -11l279 -280q13 -13 13 -31t-13 -31v0zM1288 153zM871 551l-204 -204l-119 118v44
l-24 -22l-77 77l257 257q18 18 42 12q24 6 41 -12l280 -280q-22 17 -44.5 26.5t-41.5 11.5t-36.5 0.5t-30.5 -6.5t-23 -9.5t-15 -8.5l-5 -4v0zM871 551z" />
    <glyph glyph-name="praised" unicode="&#xe618;" 
d="M893.5 663q-73.5 74 -178.5 74t-179 -74l-25 -25l-25 25q-74 74 -178.5 74t-178.5 -74t-74 -178.5t74 -178.5l25 -25l357 -304l357 304l25 25q74 74 74 178.5t-73.5 178.5z" />
    <glyph glyph-name="xinwenfenxi" unicode="&#xe62b;" 
d="M206 792v-162h-144v-537q0 -68 47.5 -115.5t114.5 -47.5h576q67 0 114.5 47.5t47.5 115.5v699h-756zM115 322v256h91v-419q0 -100 -52 -123q-39 44 -39 102v184zM258 738h650v-600q0 -64 -45 -109t-108 -45h-487q-24 0 -48 8q38 33 38 146v600zM331 630h488v-68h-488v68z
M331 482h181v-45h-181v45zM566 482h253v-315h-253v315zM331 392h181v-45h-181v45zM331 303h181v-45h-181v45zM331 212h181v-45h-181v45zM331 212z" />
    <glyph glyph-name="list" unicode="&#xe61b;" 
d="M896 640h-288q-13 0 -22.5 9.5t-9.5 22.5t9.5 22.5t22.5 9.5h288q13 0 22.5 -9.5t9.5 -22.5t-9.5 -22.5t-22.5 -9.5zM896 480h-288q-13 0 -22.5 9.5t-9.5 22.5t9.5 22.5t22.5 9.5h288q13 0 22.5 -9.5t9.5 -22.5t-9.5 -22.5t-22.5 -9.5zM896 224h-288q-13 0 -22.5 9.5
t-9.5 22.5t9.5 22.5t22.5 9.5h288q13 0 22.5 -9.5t9.5 -22.5t-9.5 -22.5t-22.5 -9.5zM896 64h-288q-13 0 -22.5 9.5t-9.5 22.5t9.5 22.5t22.5 9.5h288q13 0 22.5 -9.5t9.5 -22.5t-9.5 -22.5t-22.5 -9.5zM384 416h-192q-40 0 -68 28t-28 68v192q0 40 28 68t68 28h192
q40 0 68 -28t28 -68v-192q0 -40 -28 -68t-68 -28zM192 736q-13 0 -22.5 -9.5t-9.5 -22.5v-192q0 -13 9.5 -22.5t22.5 -9.5h192q13 0 22.5 9.5t9.5 22.5v192q0 13 -9.5 22.5t-22.5 9.5h-192zM384 -32h-192q-40 0 -68 28t-28 68v192q0 40 28 68t68 28h192q40 0 68 -28t28 -68
v-192q0 -40 -28 -68t-68 -28zM192 288q-13 0 -22.5 -9.5t-9.5 -22.5v-192q0 -13 9.5 -22.5t22.5 -9.5h192q13 0 22.5 9.5t9.5 22.5v192q0 13 -9.5 22.5t-22.5 9.5h-192z" />
    <glyph glyph-name="pinpai1" unicode="&#xe62a;" 
d="M603 673h-188q-17 0 -29 -12t-12 -29v-248h44v246h182v-246h43v248q0 17 -11.5 29t-28.5 12zM734.5 327q-7.5 24 -33.5 25l-119 2l-39 112q-9 24 -34 24t-34 -24l-39 -112l-119 -2q-26 -1 -33.5 -25t12.5 -39l95 -71l-35 -113q-7 -24 13 -39q5 -4 10 -5q2 -1 5 -1v0
q2 -1 3 -1h1h3h6q2 1 4 1q5 2 10 5l98 68l98 -68q9 -6 20 -6q12 0 21 7q21 15 13 39l-34 113l95 71q20 15 12.5 39zM572 234l35 -113l-98 68l-98 -68l34 113l-95 72l120 2l39 112l39 -112l120 -2zM512.5 858q-93.5 0 -179 -36.5t-147.5 -98t-98.5 -147t-36.5 -179.5
t36.5 -179t98.5 -147t147.5 -98.5t179 -36.5t179 36.5t147 98.5t98 147t36.5 179t-36.5 179.5t-98 147t-147 98t-179 36.5zM512.5 -5q-109.5 0 -202 54t-146.5 146.5t-54 201.5t54 202t146.5 146.5t202 53.5t202 -53.5t146 -146.5t53.5 -202t-53.5 -201.5t-146 -146.5
t-202 -54z" />
    <glyph glyph-name="xiangshangjiantou" unicode="&#xe60c;" 
d="M708 235l60 57l-256 241l-256 -241l60 -57l196 184z" />
    <glyph glyph-name="xiangxiajiantou" unicode="&#xe60d;" 
d="M316 533l-60 -57l256 -241l256 241l-60 57l-196 -184z" />
    <glyph glyph-name="bianjiziliao" unicode="&#xe61a;" horiz-adv-x="1025" 
d="M402 -50l49 157q8 26 29 44l126 117q-17 6 -30 10q-3 1 -7 3t-10 9t-9.5 16t-2.5 25.5t8 36.5h-1q51 48 83 119.5t32 143.5q0 110 -67.5 171.5t-167 61.5t-166.5 -61.5t-67 -171.5q0 -73 32 -144t83 -120q7 -24 7 -40t-9 -27t-15.5 -15.5t-12.5 -6.5q-71 -25 -133 -56
t-107.5 -72t-45.5 -79v-30q0 -129 400 -135q-5 24 2 44v0v0zM859 230l-1 -1l-38 37v0l-52 48l-234 -218q-5 -4 -7 -10l-49 -157q-4 -11 5 -19q6 -6 15 -6q3 0 6 1l167 46q5 1 10 6l235 219l-57 54v0v0zM630 48l3 -50l13 -13l-90 -25l-19 18l26 85l11 -10l56 -5v0v0zM790 336
l147 -138l34 30l-148 138l-33 -30v0zM1009 338l-70 66q-15 14 -35.5 14t-34.5 -13l-22 -21l141 -132l22 20q14 14 14 33t-15 33v0v0zM1009 338z" />
    <glyph glyph-name="gift" unicode="&#xe629;" 
d="M959 350h-894v250h894v-250zM116 400h792v149h-792v-149zM891 -8h-758v408h758v-408zM184 42h656v308h-656v-308zM487 575h50v-545h-50v545zM360 554l-90 64q-29 21 -35 56.5t15 64.5t56.5 35t64.5 -15l130 -93q24 -17 32.5 -45t-1.5 -55l-47 17q4 11 0 22.5t-13 18.5
l-130 94q-13 8 -27.5 5.5t-23 -14.5t-6 -26.5t14.5 -23.5l89 -64zM664 554l-29 41l89 64q12 9 14.5 23.5t-6 26.5t-23 14.5t-27.5 -5.5l-130 -94q-9 -7 -13 -18.5t0 -22.5l-47 -17q-10 27 -1.5 55t32.5 45l130 93q29 21 64.5 15t56.5 -35t15 -64.5t-35 -56.5z" />
    <glyph glyph-name="arrow-left" unicode="&#xe60e;" 
d="M614 152l-204 232l204 232v-464z" />
    <glyph glyph-name="arrow-right" unicode="&#xe60f;" 
d="M410 616l204 -232l-204 -232v464z" />
    <glyph glyph-name="arrow-up" unicode="&#xe610;" 
d="M280 282l232 204l232 -204h-464z" />
    <glyph glyph-name="password" unicode="&#xe615;" 
d="M213 487v-550h596v550h-596zM558 86h-46h-4v0h-45v249h45v0h4h46v-249zM672 529v51q0 74 -49 122t-113.5 48t-113.5 -48t-49 -122v-51h-84v49q0 105 72 179t174 74t174.5 -74t72.5 -179v-49h-84z" />
    <glyph glyph-name="guanbi" unicode="&#xe611;" 
d="M934 711l-93 93l-326 -326l-327 328l-93 -93l328 -328l-327 -326l93 -93l326 327l326 -326l93 93l-326 325z" />
    <glyph glyph-name="libao" unicode="&#xe625;" 
d="M763 630q-4 0 -19.5 -1.5t-27 -1t-16.5 4.5h-2v2q8 5 16 13.5t17 19t14 15.5q0 16 -5.5 30.5t-19.5 29t-21.5 21.5t-28 22.5t-21.5 15.5q-7 0 -14 -3.5t-10.5 -6.5t-10 -10t-7.5 -9q-11 -10 -32 -31.5t-33 -32.5q-3 -3 -9 -8.5t-10.5 -10t-7.5 -9.5q-5 2 -10 6.5
t-10 10.5t-7 9q-11 10 -32 29.5t-31 28.5q-3 4 -10 11.5t-11 11t-11.5 8t-15.5 6.5q-3 -2 -9.5 -4t-8.5 -4q-9 -6 -23.5 -23t-19.5 -21q-2 -3 -10 -8.5t-11 -9.5q-4 -5 -8.5 -15.5t-7.5 -15.5q0 -18 15.5 -37t31.5 -29q-2 -3 -2 -4h-228v-213q36 1 43 -2v-308
q0 -6 -0.5 -21.5t-0.5 -22.5t1 -19.5t2.5 -19.5t4 -16t7.5 -15t11 -11q11 -8 36 -11.5t45.5 -3.5t56 1t45.5 1h357q11 0 37 -1t43 -1.5t36.5 2.5t29.5 10q9 5 13.5 12t9 16.5t8.5 15.5v271q0 8 -1 38t-0.5 52t3.5 33h45v213h-165zM377 729q4 -2 8 -5t8.5 -8.5t6.5 -7.5
q12 -14 36 -36q27 -24 36 -34q-4 -6 -6 -8h-52q-9 7 -31.5 29.5t-35.5 34.5q2 9 14.5 20.5t15.5 14.5zM125 446v154h345v-1h2v-106q0 -41 -2 -47h-345zM470 -4q-205 0 -279 2q-1 1 -10.5 8t-12.5 14t-3.5 28t0.5 49.5t1 33.5v286h304l2 -4v-286q0 -8 1.5 -40t1 -55.5
t-4.5 -35.5zM579 663q8 7 21.5 20.5l24.5 24.5l21 21q25 -23 33 -31l-36.5 -36.5t-30.5 -31.5q-49 -1 -58 4q1 6 5 11t11 10.5t9 7.5zM837 2q-8 -5 -20.5 -6.5t-37 -0.5t-26.5 1h-199v386q0 30 2 33q2 2 16.5 2t34 -1t23.5 -1h150q6 0 23 -0.5t29 0t20 2.5q2 -3 2 -4v-23
v-300q0 -4 0.5 -21t0 -22.5t-2 -17t-5.5 -17.5t-10 -10v0zM899 446h-345v154h345v-154z" />
    <glyph glyph-name="zhankai" unicode="&#xe62c;" 
d="M512 -96q-130 0 -240.5 64.5t-175 175t-64.5 240.5t64.5 240.5t175 175t240.5 64.5t240.5 -64.5t175 -175t64.5 -240.5t-64.5 -240.5t-175 -175t-240.5 -64.5zM512 834q-122 0 -225.5 -60.5t-164 -164t-60.5 -225.5t60.5 -225.5t164 -164t225.5 -60.5t225.5 60.5t164 164
t60.5 225.5t-60.5 225.5t-164 164t-225.5 60.5zM288 297l-24 19l248 293l243 -293l-23 -19l-220 265z" />
    <glyph glyph-name="zhankai-copy" unicode="&#xe763;" 
d="M512 864q130 0 240.5 -64.5t175 -175t64.5 -240.5t-64.5 -240.5t-175 -175t-240.5 -64.5t-240.5 64.5t-175 175t-64.5 240.5t64.5 240.5t175 175t240.5 64.5zM512 -66q122 0 225.5 60.5t164 164t60.5 225.5t-60.5 225.5t-164 164t-225.5 60.5t-225.5 -60.5t-164 -164
t-60.5 -225.5t60.5 -225.5t164 -164t225.5 -60.5zM736 471l24 -19l-248 -293l-243 293l23 19l220 -265z" />
  </font>
</defs>
</svg>
